<?xml version="1.0" standalone="no"?>
<!DOCTYPE svg PUBLIC "-//W3C//DTD SVG 1.1//EN" "http://www.w3.org/Graphics/SVG/1.1/DTD/svg11.dtd">
<svg width="20mm" height="20mm" viewBox="-10 -10 20 20" xmlns="http://www.w3.org/2000/svg" version="1.1">
<title>OpenSCAD Model</title>
<path d="
M 4.99009,9.72592 L 5.47545,9.65393 L 5.95142,9.5347 L 6.41342,9.3694 L 6.85698,9.15961 L 7.27785,8.90735
 L 7.67197,8.61505 L 8.03553,8.28553 L 8.36505,7.92197 L 8.65735,7.52785 L 8.90961,7.10698 L 9.1194,6.66342
 L 9.2847,6.20142 L 9.40393,5.72545 L 9.47592,5.24009 L 9.5,4.75 L 9.47592,4.25991 L 9.40393,3.77455
 L 9.2847,3.29858 L 9.1194,2.83658 L 8.90961,2.39302 L 7.03275,-0.952533 L 7.99518,-8.65198 L 8,-8.75
 L 7.99518,-8.84802 L 7.98079,-8.94509 L 7.95694,-9.04028 L 7.92388,-9.13268 L 7.88192,-9.2214 L 7.83147,-9.30557
 L 7.77301,-9.38439 L 7.70711,-9.45711 L 7.63439,-9.52301 L 7.55557,-9.58147 L 7.4714,-9.63192 L 7.38268,-9.67388
 L 7.29028,-9.70694 L 7.19509,-9.73079 L 7.09802,-9.74518 L 7,-9.75 L -7,-9.75 L -7.09802,-9.74518
 L -7.19509,-9.73079 L -7.29028,-9.70694 L -7.38268,-9.67388 L -7.4714,-9.63192 L -7.55557,-9.58147 L -7.63439,-9.52301
 L -7.70711,-9.45711 L -7.77301,-9.38439 L -7.83147,-9.30557 L -7.88192,-9.2214 L -7.92388,-9.13268 L -7.95694,-9.04028
 L -7.98079,-8.94509 L -7.99518,-8.84802 L -8,-8.75 L -7.99518,-8.65198 L -7.03275,-0.952533 L -8.90961,2.39302
 L -9.1194,2.83658 L -9.2847,3.29858 L -9.40393,3.77455 L -9.47592,4.25991 L -9.5,4.75 L -9.47592,5.24009
 L -9.40393,5.72545 L -9.2847,6.20142 L -9.1194,6.66342 L -8.90961,7.10698 L -8.65735,7.52785 L -8.36505,7.92197
 L -8.03553,8.28553 L -7.67197,8.61505 L -7.27785,8.90735 L -6.85698,9.15961 L -6.41342,9.3694 L -5.95142,9.5347
 L -5.47545,9.65393 L -4.99009,9.72592 L -4.5,9.75 L -4.00991,9.72592 L -3.52455,9.65393 L -3.04858,9.5347
 L -2.58658,9.3694 L -2.14302,9.15961 L -1.72215,8.90735 L -1.32803,8.61505 L -0.964466,8.28553 L -0.634948,7.92197
 L -0.342652,7.52785 L -0.0903937,7.10698 L 0,6.91586 L 0.0903937,7.10698 L 0.342652,7.52785 L 0.634948,7.92197
 L 0.964466,8.28553 L 1.32803,8.61505 L 1.72215,8.90735 L 2.14302,9.15961 L 2.58658,9.3694 L 3.04858,9.5347
 L 3.52455,9.65393 L 4.00991,9.72592 L 4.5,9.75 z
" stroke="none" fill="black" stroke-width="0.35"/>
</svg>
