<?xml version="1.0" standalone="no"?>
<!DOCTYPE svg PUBLIC "-//W3C//DTD SVG 1.1//EN" "http://www.w3.org/Graphics/SVG/1.1/DTD/svg11.dtd">
<svg width="80mm" height="101mm" viewBox="-40 -50 80 101" xmlns="http://www.w3.org/2000/svg" version="1.1">
<title>OpenSCAD Model</title>
<path d="
M -4.33371,-37.1899 L -4.14487,-37.2844 L -3.95603,-37.426 L -3.38952,-37.9925 L -2.96464,-38.559 L -2.87022,-38.7478
 L -2.58696,-39.1255 L -2.49255,-39.3144 L -2.35092,-39.5032 L -2.16208,-39.8809 L -2.02045,-40.0697 L -1.92603,-40.2585
 L -1.64278,-40.6362 L -1.54836,-40.8251 L -1.2651,-41.2027 L -1.17069,-41.3916 L -1.02906,-41.5804 L -0.840218,-41.9581
 L -0.698591,-42.1469 L -0.604173,-42.3357 L -0.320918,-42.7134 L -0.2265,-42.9023 L -0.0848726,-43.0911 L 0.103968,-43.4688
 L 0.245596,-43.6576 L 0.340014,-43.8464 L 0.623268,-44.2241 L 0.717687,-44.413 L 1.00094,-44.7906 L 1.09536,-44.9795
 L 1.23699,-45.1683 L 1.42583,-45.546 L 1.56745,-45.7348 L 1.66187,-45.9237 L 1.94513,-46.3013 L 2.03955,-46.4902
 L 2.18118,-46.679 L 2.37001,-47.0567 L 2.51164,-47.2455 L 2.60606,-47.4344 L 2.88931,-47.812 L 2.98373,-48.0009
 L 3.26699,-48.3785 L 3.36141,-48.5674 L 3.50304,-48.7562 L 3.69187,-49.1339 L 3.8335,-49.3227 L 3.92792,-49.5116
 L 3.97513,-49.6532 L 3.92792,-49.7476 L 3.78629,-49.7476 L 2.65327,-49.4644 L 2.46443,-49.3699 L 2.08676,-49.2755
 L 1.89792,-49.1811 L 1.52025,-49.0867 L 1.33141,-48.9923 L 0.953732,-48.8978 L 0.764895,-48.8034 L -0.368127,-48.5202
 L -0.556964,-48.4258 L -0.934636,-48.3313 L -1.12348,-48.2369 L -1.50115,-48.1425 L -1.68999,-48.0481 L -2.06766,-47.9537
 L -2.2565,-47.8592 L -3.38952,-47.576 L -3.57836,-47.4816 L -3.95603,-47.3871 L -4.14487,-47.2927 L -4.52255,-47.1983
 L -4.71138,-47.1039 L -5.08906,-47.0095 L -5.2779,-46.9151 L -5.65557,-46.8206 L -5.84441,-46.7262 L -6.97742,-46.443
 L -7.16627,-46.3485 L -7.54394,-46.2541 L -7.73278,-46.1597 L -8.11045,-46.0653 L -8.29929,-45.9709 L -8.67697,-45.8764
 L -8.8658,-45.782 L -9.99883,-45.4988 L -10.1877,-45.4044 L -10.5653,-45.3099 L -10.7542,-45.2155 L -11.1318,-45.1211
 L -11.3207,-45.0267 L -11.6984,-44.9323 L -11.8872,-44.8378 L -13.0202,-44.5546 L -13.2091,-44.4602 L -13.5867,-44.3658
 L -13.7756,-44.2713 L -14.1532,-44.1769 L -14.3421,-44.0825 L -14.7198,-43.9881 L -14.9086,-43.8937 L -16.0416,-43.6104
 L -16.2305,-43.516 L -16.6081,-43.4216 L -16.797,-43.3271 L -17.1746,-43.2327 L -17.3635,-43.1383 L -17.4579,-43.0439
 L -17.4579,-42.9023 L -17.3635,-42.7606 L -17.1746,-42.619 L -12.4537,-40.2585 L -12.2649,-40.2113 L -12.076,-40.1169
 L -11.8872,-40.0697 L -8.48813,-38.3702 L -8.29929,-38.323 L -8.11045,-38.2285 L -7.92162,-38.1813 L -6.78859,-37.6148
 L -6.59976,-37.5676 L -6.41092,-37.4732 L -6.22208,-37.426 L -5.84441,-37.2371 L -5.46673,-37.1427 L -4.52255,-37.1427
 z
M 6.99652,-24.3962 L 7.56303,-24.9627 L 8.12955,-25.7181 L 8.50722,-26.0958 L 9.07373,-26.8511 L 9.45141,-27.2288
 L 10.0179,-27.9841 L 10.3956,-28.3618 L 10.9621,-29.1171 L 11.3398,-29.4948 L 11.9063,-30.2502 L 12.284,-30.6278
 L 12.8505,-31.3832 L 13.2282,-31.7609 L 13.7947,-32.5162 L 14.1723,-32.8939 L 14.7388,-33.6492 L 15.1165,-34.0269
 L 15.683,-34.7823 L 16.0607,-35.1599 L 16.6272,-35.9153 L 17.0049,-36.293 L 17.5714,-37.0483 L 17.7602,-37.2371
 L 18.0435,-37.6148 L 18.1379,-37.8037 L 18.1851,-37.9925 L 18.1851,-38.1813 L 17.9963,-38.559 L 17.5714,-39.1255
 L 17.1937,-39.5032 L 16.8161,-39.7864 L 16.6744,-39.9281 L 16.5328,-40.0225 L 16.3912,-40.1641 L 16.2968,-40.3057
 L 16.1551,-40.4002 L 15.8719,-40.6834 L 15.683,-40.8251 L 7.75187,-48.7562 L 7.56303,-48.8978 L 7.3742,-48.9451
 L 7.18537,-48.8978 L 7.04373,-48.7562 L 6.76048,-48.3785 L 6.66606,-48.1897 L 6.3828,-47.812 L 6.28838,-47.6232
 L 6.00513,-47.2455 L 5.91071,-47.0567 L 5.62745,-46.679 L 5.53304,-46.4902 L 4.68327,-45.3572 L 4.58885,-45.1683
 L 4.3056,-44.7906 L 4.21118,-44.6018 L 3.92792,-44.2241 L 3.8335,-44.0353 L 3.55025,-43.6576 L 3.45583,-43.4688
 L 2.60606,-42.3357 L 2.51164,-42.1469 L 2.22839,-41.7692 L 2.13397,-41.5804 L 1.85071,-41.2027 L 1.75629,-41.0139
 L 1.47304,-40.6362 L 1.37862,-40.4474 L 1.09536,-40.0697 L 1.00094,-39.8809 L 0.717687,-39.5032 L 0.623268,-39.3144
 L 0.340014,-38.9367 L 0.245596,-38.7478 L -0.0376635,-38.3702 L -0.132082,-38.1813 L -0.415336,-37.8037 L -0.509754,-37.6148
 L -0.793009,-37.2371 L -0.887427,-37.0483 L -1.02906,-36.8595 L -1.31231,-36.293 L -1.40673,-35.9153 L -1.35952,-35.7264
 L -1.2651,-35.5376 L -1.12348,-35.396 L -0.7458,-35.1127 L -0.556964,-35.0183 L -0.368127,-34.8767 L 0.00954561,-34.6878
 L 0.198386,-34.5462 L 0.387223,-34.4518 L 0.576059,-34.3102 L 0.953732,-34.1213 L 1.14257,-33.9797 L 1.33141,-33.8853
 L 1.52025,-33.7437 L 2.2756,-33.366 L 2.46443,-33.2244 L 2.65327,-33.1299 L 3.03094,-32.8467 L 3.21978,-32.7523
 L 3.59745,-32.469 L 3.78629,-32.3746 L 4.3528,-31.9497 L 5.10815,-31.1944 L 5.53304,-30.6278 L 5.62745,-30.439
 L 5.76908,-30.2502 L 6.24118,-29.306 L 6.71327,-27.4176 L 6.71327,-24.3962 L 6.76048,-24.3018 L 6.8549,-24.3018
 z
M 2.46443,50.5722 L 2.60606,50.4777 L 2.70048,50.3361 L 2.74769,50.1945 L 2.74769,49.8168 L 2.93652,49.0615
 L 2.93652,48.1173 L 3.12536,47.3619 L 3.12536,46.4177 L 3.3142,45.6624 L 3.3142,44.5294 L 3.50304,43.774
 L 3.50304,42.8298 L 3.69187,42.0745 L 3.69187,40.7526 L 3.88071,39.9973 L 3.88071,38.8643 L 4.06955,38.1089
 L 4.06955,36.9759 L 4.25839,36.2205 L 4.25839,35.0875 L 4.44722,34.3322 L 4.44722,33.1991 L 4.63606,32.4438
 L 4.63606,31.3108 L 4.8249,30.5554 L 4.8249,29.4224 L 5.01373,28.667 L 5.01373,27.534 L 5.20257,26.7787
 L 5.20257,25.6457 L 5.39141,24.8903 L 5.39141,23.9461 L 5.58025,23.1908 L 5.58025,21.8689 L 5.53304,21.6801
 L 5.43862,21.5384 L 5.29699,21.444 L 5.10815,21.3968 L 4.73048,21.3968 L 3.97513,21.208 L 3.59745,21.208
 L 3.40862,21.1608 L 3.21978,21.0663 L 3.03094,20.9247 L 2.88931,20.7359 L 2.8421,20.547 L 2.8421,20.3582
 L 2.93652,20.1694 L 3.21978,19.8861 L 3.97513,19.5084 L 4.16397,19.3668 L 4.3528,19.2724 L 4.91931,18.8475
 L 5.29699,18.4698 L 5.58025,18.0922 L 5.67466,17.9033 L 5.72187,17.7145 L 5.81629,17.5256 L 5.95792,16.9591
 L 5.95792,16.5815 L 5.81629,16.0149 L 5.72187,15.8261 L 5.62745,15.4484 L 5.53304,15.2596 L 5.48583,15.0708
 L 4.63606,13.3712 L 4.49443,13.1824 L 4.40001,12.9936 L 4.25839,12.8047 L 4.06955,12.427 L 3.92792,12.2382
 L 3.8335,12.0494 L 3.69187,11.8605 L 3.50304,11.4829 L 3.36141,11.294 L 3.26699,11.1052 L 3.12536,10.9163
 L 2.93652,10.5387 L 2.7949,10.3498 L 2.70048,10.161 L 2.55885,9.97216 L 2.37001,9.59448 L 2.22839,9.40565
 L 2.13397,9.21681 L 1.99234,9.02797 L 1.8035,8.6503 L 1.66187,8.46146 L 1.56745,8.27262 L 1.42583,8.08378
 L 1.23699,7.70611 L 1.09536,7.51727 L 1.00094,7.32844 L 0.859314,7.1396 L 0.670477,6.76192 L 0.52885,6.57309
 L 0.434432,6.38425 L 0.292805,6.19541 L 0.103968,5.81774 L -0.0376635,5.6289 L -0.132082,5.44006 L -0.273709,5.25123
 L -0.462545,4.87355 L -0.604173,4.68472 L -0.698591,4.49588 L -0.840218,4.30704 L -1.02906,3.92937 L -1.17069,3.74053
 L -1.2651,3.55169 L -1.40673,3.36285 L -1.59557,2.98518 L -1.7372,2.79634 L -1.83161,2.60751 L -1.97324,2.41867
 L -2.16208,2.04099 L -2.30371,1.85216 L -2.39813,1.66332 L -2.53975,1.47448 L -2.72859,1.09681 L -2.87022,0.907971
 L -2.96464,0.719134 L -3.10627,0.530297 L -3.2951,0.152622 L -3.43673,-0.0362151 L -3.53115,-0.225052 L -3.67278,-0.41389
 L -3.86161,-0.791564 L -4.00325,-0.980401 L -4.09766,-1.16924 L -4.23929,-1.35808 L -4.42813,-1.73575 L -4.56975,-1.92459
 L -4.66417,-2.11342 L -4.8058,-2.30226 L -4.99464,-2.67994 L -5.13627,-2.86877 L -5.23069,-3.05761 L -5.37231,-3.24645
 L -5.56115,-3.62412 L -5.70278,-3.81296 L -5.7972,-4.00179 L -5.93883,-4.19064 L -6.12766,-4.56831 L -6.26929,-4.75714
 L -6.36371,-4.94598 L -6.50534,-5.13482 L -6.69417,-5.51249 L -6.8358,-5.70133 L -6.93022,-5.89017 L -7.07185,-6.079
 L -7.26069,-6.45668 L -7.40231,-6.64552 L -7.49673,-6.83435 L -7.63836,-7.02319 L -7.8272,-7.40087 L -7.96883,-7.5897
 L -8.06324,-7.77854 L -8.20487,-7.96738 L -8.39371,-8.34505 L -8.53534,-8.53389 L -8.62976,-8.72273 L -8.91301,-9.1004
 L -9.00742,-9.28924 L -9.29069,-9.66691 L -9.3851,-9.85575 L -9.66836,-10.2334 L -9.76278,-10.4223 L -10.1877,-10.9888
 L -10.943,-11.7441 L -11.5095,-12.169 L -11.6984,-12.2634 L -12.076,-12.5467 L -12.2649,-12.6411 L -12.6425,-12.9244
 L -12.8314,-13.0188 L -13.0202,-13.1604 L -13.3979,-13.3492 L -13.5867,-13.4909 L -13.7756,-13.5853 L -13.9644,-13.7269
 L -17.1746,-15.332 L -17.3635,-15.3792 L -17.5523,-15.4737 L -17.7412,-15.5209 L -19.2518,-16.2762 L -19.4407,-16.3234
 L -19.8184,-16.5123 L -20.0072,-16.6539 L -20.1016,-16.8427 L -20.1016,-17.0316 L -20.0072,-17.1732 L -19.8184,-17.3148
 L -19.6295,-17.4092 L -19.4407,-17.4564 L -19.2518,-17.5509 L -18.8742,-17.6453 L -18.6853,-17.7397 L -18.4965,-17.7869
 L -18.1188,-17.9757 L -17.93,-18.023 L -17.7412,-18.1174 L -17.3635,-18.2118 L -17.1746,-18.3062 L -16.9858,-18.3534
 L -16.6081,-18.5423 L -16.4193,-18.5895 L -16.2305,-18.6839 L -16.0888,-18.7783 L -15.9472,-18.9199 L -15.8528,-19.1088
 L -15.8528,-19.4864 L -15.9472,-19.8641 L -15.9472,-20.053 L -16.136,-20.8083 L -16.136,-20.9971 L -16.3249,-21.7525
 L -16.3249,-21.9413 L -16.5137,-22.6967 L -16.5137,-22.8855 L -16.7025,-23.6409 L -16.7025,-24.0185 L -16.8914,-24.7739
 L -16.8914,-25.1516 L -16.8442,-25.3404 L -16.7498,-25.482 L -16.6081,-25.5292 L -16.4193,-25.482 L -16.2305,-25.3404
 L -15.2863,-24.3962 L -14.7198,-23.6409 L -13.7756,-22.6967 L -13.0202,-22.1302 L -12.6425,-21.7525 L -12.076,-21.3276
 L -11.8872,-21.2332 L -11.5095,-20.9499 L -11.3207,-20.8555 L -11.1318,-20.7139 L -9.43231,-19.8641 L -9.24348,-19.8169
 L -9.05464,-19.7225 L -7.73278,-19.392 L -7.54394,-19.392 L -6.78859,-19.2032 L -4.90022,-19.2032 L -4.14487,-19.392
 L -3.20069,-19.392 L -3.01185,-19.3448 L -2.87022,-19.2504 L -2.7758,-19.1088 L -2.7758,-18.9199 L -2.87022,-18.7311
 L -3.01185,-18.5423 L -3.20069,-18.4006 L -3.38952,-18.3062 L -3.57836,-18.259 L -3.7672,-18.259 L -4.52255,-18.0702
 L -4.71138,-18.0702 L -5.46673,-17.8813 L -5.65557,-17.8813 L -6.41092,-17.6925 L -7.3551,-17.6925 L -8.11045,-17.5037
 L -10.3765,-17.5037 L -11.1318,-17.3148 L -11.3207,-17.3148 L -11.4623,-17.2676 L -11.5095,-17.1732 L -11.4623,-17.0788
 L -11.3207,-16.9371 L -9.62115,-16.0874 L -9.43231,-16.0402 L -8.48813,-15.5681 L -8.29929,-15.5209 L -4.52255,-13.6325
 L -4.33371,-13.5853 L -3.38952,-13.1132 L -3.20069,-13.066 L -2.44534,-12.6883 L -2.06766,-12.5939 L -1.87882,-12.5939
 L -1.68999,-12.6411 L -1.50115,-12.7355 L -1.31231,-12.8771 L -0.887427,-13.4437 L -0.793009,-13.6325 L 0.623268,-15.5209
 L 0.717687,-15.7097 L 1.00094,-16.0874 L 1.09536,-16.2762 L 1.23699,-16.4651 L 1.42583,-16.8427 L 1.56745,-17.0316
 L 1.66187,-17.2204 L 1.8035,-17.4092 L 2.8421,-19.4864 L 2.88931,-19.6753 L 2.98373,-19.8641 L 3.07815,-20.2418
 L 3.17257,-20.4306 L 3.26699,-20.8083 L 3.36141,-20.9971 L 3.69187,-22.319 L 3.69187,-22.5078 L 3.88071,-23.2632
 L 3.88071,-26.8511 L 3.59745,-27.9841 L 3.12536,-28.9283 L 2.70048,-29.4948 L 2.2756,-29.9197 L 1.70908,-30.3446
 L 0.576059,-30.9111 L 0.387223,-31.0527 L 0.198386,-31.1471 L 0.00954561,-31.2888 L -4.90022,-33.7437 L -5.08906,-33.8853
 L -5.2779,-33.9797 L -5.46673,-34.1213 L -9.99883,-36.3874 L -10.1877,-36.529 L -10.3765,-36.6234 L -10.5653,-36.7651
 L -15.4751,-39.2199 L -15.6639,-39.3616 L -15.8528,-39.456 L -16.0416,-39.5976 L -19.2518,-41.2027 L -20.196,-41.4388
 L -20.3849,-41.4388 L -20.7625,-41.3444 L -21.1402,-41.1555 L -21.3291,-41.0139 L -21.7067,-40.6362 L -22.2732,-39.8809
 L -22.4621,-39.692 L -23.0286,-38.9367 L -23.2174,-38.7478 L -23.7839,-37.9925 L -23.9728,-37.8037 L -24.5393,-37.0483
 L -24.7281,-36.8595 L -25.2946,-36.1041 L -25.4835,-35.9153 L -26.05,-35.1599 L -26.2388,-34.9711 L -26.8053,-34.2157
 L -27.183,-33.8381 L -27.7495,-33.0827 L -28.1272,-32.7051 L -28.6937,-31.9497 L -29.0714,-31.572 L -29.6379,-30.8167
 L -30.0156,-30.439 L -30.5821,-29.6837 L -30.9598,-29.306 L -31.5263,-28.5506 L -31.9039,-28.173 L -32.4705,-27.4176
 L -32.8481,-27.0399 L -33.4146,-26.2846 L -33.6035,-26.0958 L -34.17,-25.3404 L -34.3588,-25.1516 L -34.9253,-24.3962
 L -35.1142,-24.2074 L -37.2386,-21.3748 L -37.333,-21.186 L -37.6163,-20.8083 L -37.7107,-20.6195 L -37.9939,-20.2418
 L -38.0884,-20.053 L -38.23,-19.8641 L -38.8909,-18.5423 L -38.9381,-18.3534 L -39.0325,-18.1646 L -39.0798,-17.9757
 L -39.2686,-17.5981 L -39.363,-17.2204 L -39.363,-17.0316 L -39.5518,-16.2762 L -39.5518,-14.9544 L -39.2214,-13.6325
 L -39.127,-13.4437 L -39.0798,-13.2548 L -38.7965,-12.6883 L -38.6549,-12.4995 L -38.5605,-12.3106 L -38.4188,-12.1218
 L -38.23,-11.7441 L -38.0884,-11.5553 L -37.9939,-11.3664 L -37.7107,-10.9888 L -37.6163,-10.7999 L -37.333,-10.4223
 L -37.2386,-10.2334 L -37.097,-10.0446 L -36.9081,-9.66691 L -36.7665,-9.47808 L -36.6721,-9.28924 L -36.3888,-8.91156
 L -36.2944,-8.72273 L -36.0112,-8.34505 L -35.9167,-8.15622 L -35.6335,-7.77854 L -35.5391,-7.5897 L -35.3974,-7.40087
 L -35.2086,-7.02319 L -35.067,-6.83435 L -34.9725,-6.64552 L -34.6893,-6.26784 L -34.5949,-6.079 L -34.3116,-5.70133
 L -34.2172,-5.51249 L -34.0756,-5.32366 L -33.8867,-4.94598 L -33.7451,-4.75714 L -33.6507,-4.56831 L -33.3674,-4.19064
 L -33.273,-4.00179 L -32.9898,-3.62412 L -32.8953,-3.43529 L -32.7537,-3.24645 L -32.5649,-2.86877 L -32.4232,-2.67994
 L -32.3288,-2.4911 L -32.0456,-2.11342 L -31.9512,-1.92459 L -31.6679,-1.54691 L -31.5735,-1.35808 L -31.4318,-1.16924
 L -31.243,-0.791564 L -31.1014,-0.602727 L -31.007,-0.41389 L -30.7237,-0.0362151 L -30.6293,0.152622 L -30.346,0.530297
 L -30.2516,0.719134 L -30.11,0.907971 L -29.9212,1.28565 L -29.7795,1.47448 L -29.6851,1.66332 L -29.4018,2.04099
 L -29.3074,2.22983 L -29.0242,2.60751 L -28.9298,2.79634 L -28.7881,2.98518 L -28.5993,3.36285 L -28.4577,3.55169
 L -28.3632,3.74053 L -28.08,4.1182 L -27.9856,4.30704 L -27.7023,4.68472 L -27.6079,4.87355 L -27.4663,5.06239
 L -27.2774,5.44006 L -27.1358,5.6289 L -27.0414,5.81774 L -26.7581,6.19541 L -26.6637,6.38425 L -26.3805,6.76192
 L -26.286,6.95076 L -26.1444,7.1396 L -25.9556,7.51727 L -25.8139,7.70611 L -25.7195,7.89495 L -25.4363,8.27262
 L -25.3418,8.46146 L -25.2002,8.6503 L -25.0114,9.02797 L -24.8698,9.21681 L -24.7753,9.40565 L -24.4921,9.78332
 L -24.3977,9.97216 L -24.256,10.161 L -24.0672,10.5387 L -23.9256,10.7275 L -23.8312,10.9163 L -23.5479,11.294
 L -23.4535,11.4829 L -23.1702,11.8605 L -23.0758,12.0494 L -22.9342,12.2382 L -22.7453,12.6159 L -22.6037,12.8047
 L -22.5093,12.9936 L -22.3677,13.1824 L -22.1788,13.5601 L -22.0372,13.7489 L -21.9428,13.9377 L -21.6595,14.3154
 L -21.5651,14.5043 L -21.2818,14.8819 L -21.1874,15.0708 L -21.0458,15.2596 L -20.857,15.6373 L -20.7153,15.8261
 L -20.6209,16.0149 L -20.3377,16.3926 L -20.2432,16.5815 L -19.96,16.9591 L -19.8656,17.148 L -19.7239,17.3368
 L -19.5351,17.7145 L -19.3935,17.9033 L -19.2991,18.0922 L -19.0158,18.4698 L -18.9214,18.6587 L -18.7798,18.8475
 L -18.4021,19.6029 L -18.2605,19.7917 L -17.9772,20.3582 L -17.93,20.547 L -17.7412,20.9247 L -17.4579,22.0577
 L -17.4579,23.5684 L -17.2691,24.3238 L -17.2691,25.4568 L -17.4579,26.2122 L -17.4579,27.7229 L -17.6467,28.4782
 L -17.6467,29.0447 L -17.8356,29.8001 L -17.8356,30.1777 L -18.0244,30.9331 L -18.0244,31.3108 L -18.2132,32.0661
 L -18.2132,32.4438 L -18.4021,33.1991 L -18.4021,33.5768 L -18.5909,34.3322 L -18.5909,34.7098 L -18.7798,35.4652
 L -18.7798,35.8429 L -18.9686,36.5982 L -18.9686,36.9759 L -19.1574,37.7312 L -19.1574,38.1089 L -19.3463,38.8643
 L -19.3463,39.2419 L -19.5351,39.9973 L -19.5351,40.375 L -19.7239,41.1303 L -19.7239,41.3191 L -19.9128,42.0745
 L -19.9128,42.641 L -20.1016,43.3963 L -20.1016,43.774 L -20.2905,44.5294 L -20.2905,44.907 L -20.4793,45.6624
 L -20.4793,47.1731 L -20.3377,47.7396 L -20.2432,47.9284 L -20.1488,48.3061 L -20.0544,48.495 L -20.0072,48.6838
 L -19.8184,49.0615 L -19.7712,49.2503 L -19.6767,49.4391 L -19.5823,49.8168 L -19.4879,50.0056 L -19.3935,50.3833
 L -19.2991,50.5249 L -19.2046,50.6194 L -19.063,50.6666 L 2.08676,50.6666 z
M 12.6616,-7.02319 L 12.8505,-7.11761 L 13.0393,-7.25924 L 13.2282,-7.35366 L 13.6058,-7.63691 L 13.7475,-7.77854
 L 14.1723,-8.34505 L 15.4942,-9.66691 L 16.0607,-10.4223 L 17.1937,-11.5553 L 17.7602,-12.3106 L 18.8933,-13.4437
 L 19.4598,-14.199 L 20.5928,-15.332 L 21.1593,-16.0874 L 22.2923,-17.2204 L 22.8588,-17.9757 L 24.1807,-19.2976
 L 24.7472,-20.053 L 25.8803,-21.186 L 26.4468,-21.9413 L 27.5798,-23.0744 L 28.1463,-23.8297 L 29.0905,-24.7739
 L 29.5154,-25.3404 L 29.6098,-25.5292 L 29.7514,-25.7181 L 29.8458,-25.9069 L 29.9403,-26.2846 L 29.9403,-26.4734
 L 29.8458,-26.8511 L 29.7514,-27.0399 L 29.4682,-27.4176 L 27.3909,-29.4948 L 26.6356,-30.0613 L 23.6142,-33.0827
 L 22.8588,-33.6492 L 20.7816,-35.7264 L 20.5928,-35.8681 L 20.404,-35.9153 L 20.2151,-35.8681 L 20.0263,-35.7264
 L 19.6486,-35.3488 L 17.9491,-33.0827 L 17.7602,-32.8939 L 17.1937,-32.1385 L 17.0049,-31.9497 L 16.4384,-31.1944
 L 16.2496,-31.0055 L 15.683,-30.2502 L 15.4942,-30.0613 L 14.9277,-29.306 L 14.7388,-29.1171 L 14.1723,-28.3618
 L 13.9835,-28.173 L 13.417,-27.4176 L 13.2282,-27.2288 L 12.0951,-25.7181 L 11.9063,-25.5292 L 11.3398,-24.7739
 L 11.1509,-24.5851 L 10.5844,-23.8297 L 10.3956,-23.6409 L 9.82908,-22.8855 L 9.64024,-22.6967 L 9.07373,-21.9413
 L 8.8849,-21.7525 L 8.31838,-20.9971 L 8.12955,-20.8083 L 6.99652,-19.2976 L 6.80769,-19.1088 L 6.24118,-18.3534
 L 6.05234,-18.1646 L 5.48583,-17.4092 L 5.29699,-17.2204 L 4.73048,-16.4651 L 4.54164,-16.2762 L 3.97513,-15.5209
 L 3.78629,-15.332 L 3.21978,-14.5767 L 3.03094,-14.3878 L 2.18118,-13.2548 L 1.99234,-12.8771 L 1.94513,-12.6883
 L 1.94513,-12.4995 L 1.99234,-12.3106 L 2.13397,-12.1218 L 2.2756,-11.9802 L 2.8421,-11.5553 L 3.03094,-11.3664
 L 3.59745,-10.9416 L 3.78629,-10.8471 L 4.16397,-10.5639 L 4.3528,-10.4695 L 4.73048,-10.1862 L 4.91931,-10.0918
 L 5.29699,-9.80854 L 5.48583,-9.71412 L 5.67466,-9.57249 L 10.7733,-7.02319 L 11.5286,-6.83435 L 11.9063,-6.83435
 z
M 21.1593,1.28565 L 21.3482,1.19123 L 21.537,1.0496 L 21.7258,0.95518 L 22.1035,0.671924 L 22.2923,0.577506
 L 22.67,0.29425 L 22.8588,0.199831 L 23.2365,-0.0834244 L 23.4254,-0.177843 L 24.5584,-1.02761 L 24.7472,-1.12203
 L 25.8803,-1.9718 L 26.0691,-2.06622 L 27.3909,-3.05761 L 27.5798,-3.24645 L 28.3351,-3.81296 L 28.524,-4.00179
 L 29.2793,-4.56831 L 29.4682,-4.75714 L 30.2235,-5.32366 L 30.79,-5.89017 L 31.5454,-6.45668 L 32.1119,-7.02319
 L 32.8672,-7.5897 L 33.6226,-8.34505 L 34.3779,-8.91156 L 35.5109,-10.0446 L 36.2663,-10.6111 L 36.8328,-11.1776
 L 37.5882,-11.7441 L 37.777,-11.933 L 38.5323,-12.4995 L 39.0988,-13.066 L 39.3821,-13.4437 L 39.4765,-13.6325
 L 39.5709,-14.0102 L 39.5709,-14.5767 L 39.4293,-15.1432 L 39.3349,-15.332 L 39.2405,-15.7097 L 39.1461,-15.8985
 L 39.0988,-16.0874 L 38.6268,-17.0316 L 38.4851,-17.2204 L 38.3907,-17.4092 L 38.2491,-17.5981 L 38.0602,-17.9757
 L 37.9186,-18.1646 L 37.8242,-18.3534 L 37.6826,-18.5423 L 37.4937,-18.9199 L 37.3521,-19.1088 L 37.2577,-19.2976
 L 35.6998,-21.3748 L 35.5109,-21.5637 L 34.9444,-22.319 L 34.1891,-23.0744 L 33.6226,-23.8297 L 33.2449,-24.2074
 L 33.0561,-24.349 L 32.8672,-24.4434 L 32.6784,-24.4906 L 32.4896,-24.4434 L 32.3007,-24.349 L 31.3565,-23.6409
 L 30.6012,-22.8855 L 30.0347,-22.1302 L 27.5798,-19.6753 L 27.0133,-18.9199 L 24.1807,-16.0874 L 23.6142,-15.332
 L 21.1593,-12.8771 L 20.5928,-12.1218 L 17.7602,-9.28924 L 17.1937,-8.53389 L 14.55,-5.89017 L 14.1251,-5.32366
 L 13.9363,-4.94598 L 13.9363,-4.75714 L 14.0307,-4.56831 L 14.1723,-4.37947 L 14.3612,-4.19064 L 14.9277,-3.76575
 L 15.1165,-3.67133 L 15.683,-3.24645 L 16.4384,-2.4911 L 17.1937,-1.92459 L 19.8375,0.719134 L 20.404,1.14402
 L 20.7816,1.33285 L 20.9705,1.33285 z
M 19.8375,50.4305 L 19.9791,50.3361 L 20.0735,50.1945 L 20.3096,49.2503 L 20.3096,39.0531 L 20.4984,38.2977
 L 20.4984,30.7443 L 20.6872,29.9889 L 20.6872,28.8559 L 20.8761,28.1005 L 20.8761,27.9117 L 21.1593,26.7787
 L 21.3482,26.401 L 21.3954,26.2122 L 21.4898,26.0233 L 21.537,25.8345 L 21.8202,25.268 L 21.9619,25.0791
 L 22.0563,24.8903 L 22.3396,24.5126 L 22.434,24.3238 L 23.4254,23.0019 L 24.1807,22.2466 L 24.7472,21.4912
 L 25.5026,20.7359 L 26.494,19.414 L 26.5884,19.2252 L 26.8716,18.8475 L 26.9661,18.6587 L 27.2493,18.281
 L 27.3437,18.0922 L 27.4854,17.9033 L 27.6742,17.5256 L 27.8158,17.3368 L 27.9102,17.148 L 28.0519,16.9591
 L 28.9016,15.2596 L 28.9489,15.0708 L 29.0433,14.8819 L 29.0905,14.6931 L 29.2793,14.3154 L 29.3265,14.1266
 L 29.4209,13.9377 L 29.5154,13.5601 L 29.6098,13.3712 L 29.7042,12.9936 L 29.7986,12.8047 L 29.8458,12.6159
 L 30.0347,12.2382 L 30.2235,11.4829 L 30.4123,11.1052 L 31.0261,8.6503 L 31.1205,8.46146 L 31.6398,6.38425
 L 31.6398,6.19541 L 32.0175,4.68472 L 32.0175,4.49588 L 32.2063,3.74053 L 32.2063,3.55169 L 32.3951,2.79634
 L 32.3951,2.60751 L 32.584,1.85216 L 32.584,1.66332 L 32.7728,0.907971 L 32.7728,0.341459 L 32.9616,-0.41389
 L 32.9616,-0.791564 L 33.1505,-1.54691 L 33.1505,-2.86877 L 33.3393,-3.62412 L 33.3393,-4.94598 L 33.2921,-5.08761
 L 33.1977,-5.13482 L 33.0561,-5.13482 L 32.8672,-5.0404 L 29.657,-2.63273 L 29.4682,-2.53831 L 28.3351,-1.68854
 L 28.1463,-1.59412 L 27.0133,-0.744355 L 26.8244,-0.649936 L 25.6914,0.199831 L 25.5026,0.29425 L 25.1249,0.577506
 L 24.9361,0.671924 L 24.5584,0.95518 L 24.3696,1.0496 L 23.9919,1.33285 L 23.803,1.42727 L 23.4254,1.71053
 L 23.2365,1.80495 L 22.8588,2.0882 L 22.67,2.18262 L 22.4812,2.32425 L 22.1035,2.51309 L 21.9147,2.65472
 L 21.7258,2.74913 L 21.537,2.89076 L 21.3482,2.98518 L 21.1593,3.03239 L 20.9705,3.12681 L 20.7816,3.12681
 L 20.404,3.03239 L 18.3268,1.47448 L 15.8719,-0.980401 L 15.1165,-1.54691 L 13.7947,-2.86877 L 13.0393,-3.43529
 L 12.8505,-3.62412 L 10.9621,-5.0404 L 10.5844,-5.22924 L 10.3956,-5.37087 L 10.2068,-5.46529 L 9.82908,-5.74854
 L 9.64024,-5.84296 L 9.26258,-6.12622 L 9.07373,-6.22064 L 8.8849,-6.36226 L 7.75187,-6.92877 L 7.56303,-7.0704
 L 7.3742,-7.16482 L 7.18537,-7.30645 L 6.24118,-7.77854 L 6.05234,-7.82575 L 5.8635,-7.92017 L 5.67466,-7.96738
 L 4.91931,-8.34505 L 4.73048,-8.39226 L 4.54164,-8.48668 L 4.3528,-8.53389 L 3.97513,-8.72273 L 3.78629,-8.76994
 L 3.59745,-8.86435 L 3.21978,-8.95877 L 3.03094,-9.05319 L 2.65327,-9.14761 L 2.46443,-9.24203 L 2.08676,-9.33645
 L 1.89792,-9.43087 L -0.934636,-10.139 L -1.12348,-10.139 L -1.87882,-10.3278 L -2.2565,-10.3278 L -3.01185,-10.5167
 L -3.95603,-10.5167 L -4.71138,-10.7055 L -4.90022,-10.6583 L -5.2779,-10.5639 L -5.37231,-10.4695 L -5.41952,-10.3751
 L -5.37231,-10.2334 L -4.42813,-8.34505 L -4.2865,-8.15622 L -4.19208,-7.96738 L -4.05045,-7.77854 L -3.48394,-6.64552
 L -3.34231,-6.45668 L -3.2479,-6.26784 L -3.10627,-6.079 L -2.35092,-4.56831 L -2.20929,-4.37947 L -2.11487,-4.19064
 L -1.97324,-4.00179 L -1.2179,-2.4911 L -1.07627,-2.30226 L -0.98185,-2.11342 L -0.840218,-1.92459 L -0.273709,-0.791564
 L -0.132082,-0.602727 L -0.0376635,-0.41389 L 0.103968,-0.225052 L 0.859314,1.28565 L 1.00094,1.47448 L 1.09536,1.66332
 L 1.23699,1.85216 L 1.8035,2.98518 L 1.94513,3.17402 L 2.03955,3.36285 L 2.18118,3.55169 L 2.93652,5.06239
 L 3.07815,5.25123 L 3.17257,5.44006 L 3.3142,5.6289 L 4.06955,7.1396 L 4.21118,7.32844 L 4.3056,7.51727
 L 4.44722,7.70611 L 5.01373,8.83913 L 5.15536,9.02797 L 5.24978,9.21681 L 5.39141,9.40565 L 6.14676,10.9163
 L 6.28838,11.1052 L 6.3828,11.294 L 6.52443,11.4829 L 7.09094,12.6159 L 7.23258,12.8047 L 7.32699,12.9936
 L 7.46862,13.1824 L 8.03513,14.3154 L 8.17676,14.5043 L 8.27118,14.6931 L 8.4128,14.8819 L 9.16816,16.3926
 L 9.30978,16.5815 L 9.4042,16.7703 L 9.54583,16.9591 L 10.3012,18.4698 L 10.4428,18.6587 L 10.5372,18.8475
 L 10.6788,19.0363 L 11.2454,20.1694 L 11.387,20.3582 L 11.4814,20.547 L 11.623,20.7359 L 11.9063,21.3024
 L 12.0007,21.6801 L 11.9535,21.8689 L 11.8591,22.0105 L 11.7175,22.1049 L 11.5286,22.1522 L 10.7733,21.9633
 L 9.45141,21.9633 L 8.69606,21.7745 L 8.55443,21.8217 L 8.46001,21.9161 L 8.36559,22.0577 L 8.22397,22.6242
 L 8.22397,23.7573 L 8.03513,24.5126 L 8.03513,25.8345 L 7.84629,26.5898 L 7.84629,27.9117 L 7.65745,28.667
 L 7.65745,29.9889 L 7.46862,30.7443 L 7.46862,32.0661 L 7.27978,32.8215 L 7.27978,34.3322 L 7.09094,35.0875
 L 7.09094,36.2205 L 6.9021,36.9759 L 6.9021,38.2977 L 6.71327,39.0531 L 6.71327,40.375 L 6.52443,41.1303
 L 6.52443,42.4522 L 6.33559,43.2075 L 6.33559,44.3405 L 6.14676,45.0959 L 6.14676,46.4177 L 5.95792,47.1731
 L 5.95792,48.3061 L 5.76908,49.0615 L 5.76908,50.0056 L 5.72187,50.1945 L 5.72187,50.3361 L 5.76908,50.4305
 L 5.8635,50.4777 L 19.6486,50.4777 z
" stroke="none" fill="black" stroke-width="0.35"/>
</svg>
