<?xml version="1.0" standalone="no"?>
<!DOCTYPE svg PUBLIC "-//W3C//DTD SVG 1.1//EN" "http://www.w3.org/Graphics/SVG/1.1/DTD/svg11.dtd">
<svg width="102mm" height="68mm" viewBox="-51 -34 102 68" xmlns="http://www.w3.org/2000/svg" version="1.1">
<title>OpenSCAD Model</title>
<path d="
M 19.9339,33.1728 L 23.1697,32.6928 L 26.3428,31.898 L 29.4228,30.796 L 32.3799,29.3974 L 35.1857,27.7157
 L 37.8131,25.767 L 40.2369,23.5702 L 42.4337,21.1464 L 44.3823,18.519 L 46.064,15.7132 L 47.4627,12.7561
 L 48.5647,9.67616 L 49.3595,6.50301 L 49.8395,3.26724 L 50,-0 L 49.8395,-3.26724 L 49.3595,-6.50301
 L 48.5647,-9.67616 L 47.4627,-12.7561 L 46.064,-15.7132 L 44.3823,-18.519 L 42.4337,-21.1464 L 40.2369,-23.5702
 L 37.8131,-25.767 L 35.1857,-27.7157 L 32.3799,-29.3974 L 29.4228,-30.796 L 26.3428,-31.898 L 23.1697,-32.6928
 L 19.9339,-33.1728 L 16.6667,-33.3333 L 13.3994,-33.1728 L 10.1637,-32.6928 L 6.99051,-31.898 L 3.91055,-30.796
 L 0.953442,-29.3974 L -1.27459,-28.0619 L -37.7998,-33.2798 L -38.8889,-33.3333 L -39.978,-33.2798 L -41.0566,-33.1198
 L -42.1143,-32.8549 L -43.1409,-32.4876 L -44.1266,-32.0213 L -45.0619,-31.4608 L -45.9377,-30.8112 L -46.7456,-30.079
 L -47.4779,-29.271 L -48.1274,-28.3952 L -48.688,-27.46 L -49.1542,-26.4743 L -49.5216,-25.4476 L -49.7865,-24.3899
 L -49.9465,-23.3113 L -50,-22.2222 L -49.9465,-21.1331 L -49.7865,-20.0546 L -49.5216,-18.9968 L -49.1542,-17.9702
 L -48.688,-16.9845 L -48.1274,-16.0492 L -47.4779,-15.1734 L -46.7456,-14.3655 L -45.9377,-13.6332 L -45.0619,-12.9837
 L -44.1266,-12.4231 L -43.1409,-11.9569 L -42.1143,-11.5896 L -41.0566,-11.3246 L -39.978,-11.1646 L -15.7263,-7.70009
 L -16.0262,-6.50301 L -16.5062,-3.26724 L -16.6667,-0 L -16.5062,3.26724 L -16.0262,6.50301 L -15.7263,7.70009
 L -39.978,11.1646 L -41.0566,11.3246 L -42.1143,11.5896 L -43.1409,11.9569 L -44.1266,12.4231 L -45.0619,12.9837
 L -45.9377,13.6332 L -46.7456,14.3655 L -47.4779,15.1734 L -48.1274,16.0492 L -48.688,16.9845 L -49.1542,17.9702
 L -49.5216,18.9968 L -49.7865,20.0546 L -49.9465,21.1331 L -50,22.2222 L -49.9465,23.3113 L -49.7865,24.3899
 L -49.5216,25.4476 L -49.1542,26.4743 L -48.688,27.46 L -48.1274,28.3952 L -47.4779,29.271 L -46.7456,30.079
 L -45.9377,30.8112 L -45.0619,31.4608 L -44.1266,32.0213 L -43.1409,32.4876 L -42.1143,32.8549 L -41.0566,33.1198
 L -39.978,33.2798 L -38.8889,33.3333 L -37.7998,33.2798 L -1.27459,28.0619 L 0.953442,29.3974 L 3.91055,30.796
 L 6.99051,31.898 L 10.1637,32.6928 L 13.3994,33.1728 L 16.6667,33.3333 z
M 5.01102,-5.58231 L 4.47172,-5.6623 L 3.94286,-5.79478 L 3.42954,-5.97845 L 2.93668,-6.21155 L 2.46905,-6.49184
 L 2.03115,-6.81661 L 1.62718,-7.18274 L 1.26105,-7.5867 L 0.93628,-8.02461 L 0.655993,-8.49224 L 0.422891,-8.98509
 L 0.23922,-9.49842 L 0.106748,-10.0273 L 0.0267515,-10.5666 L 0,-11.1111 L 0.0267515,-11.6557 L 0.106748,-12.1949
 L 0.23922,-12.7238 L 0.422891,-13.2371 L 0.655993,-13.73 L 0.93628,-14.1976 L 1.26105,-14.6355 L 1.62718,-15.0395
 L 2.03115,-15.4056 L 2.46905,-15.7304 L 2.93668,-16.0107 L 3.42954,-16.2438 L 3.94286,-16.4274 L 4.47172,-16.5599
 L 5.01102,-16.6399 L 5.55556,-16.6667 L 6.1001,-16.6399 L 6.63939,-16.5599 L 7.16825,-16.4274 L 7.68157,-16.2438
 L 8.17443,-16.0107 L 8.64206,-15.7304 L 9.07996,-15.4056 L 9.48393,-15.0395 L 9.85006,-14.6355 L 10.1748,-14.1976
 L 10.4551,-13.73 L 10.6882,-13.2371 L 10.8719,-12.7238 L 11.0044,-12.1949 L 11.0844,-11.6557 L 11.1111,-11.1111
 L 11.0844,-10.5666 L 11.0044,-10.0273 L 10.8719,-9.49842 L 10.6882,-8.98509 L 10.4551,-8.49224 L 10.1748,-8.02461
 L 9.85006,-7.5867 L 9.48393,-7.18274 L 9.07996,-6.81661 L 8.64206,-6.49184 L 8.17443,-6.21155 L 7.68157,-5.97845
 L 7.16825,-5.79478 L 6.63939,-5.6623 L 6.1001,-5.58231 L 5.55556,-5.55556 z
M 5.01102,16.6399 L 4.47172,16.5599 L 3.94286,16.4274 L 3.42954,16.2438 L 2.93668,16.0107 L 2.46905,15.7304
 L 2.03115,15.4056 L 1.62718,15.0395 L 1.26105,14.6355 L 0.93628,14.1976 L 0.655993,13.73 L 0.422891,13.2371
 L 0.23922,12.7238 L 0.106748,12.1949 L 0.0267515,11.6557 L 0,11.1111 L 0.0267515,10.5666 L 0.106748,10.0273
 L 0.23922,9.49842 L 0.422891,8.98509 L 0.655993,8.49224 L 0.93628,8.02461 L 1.26105,7.5867 L 1.62718,7.18274
 L 2.03115,6.81661 L 2.46905,6.49184 L 2.93668,6.21155 L 3.42954,5.97845 L 3.94286,5.79478 L 4.47172,5.6623
 L 5.01102,5.58231 L 5.55556,5.55556 L 6.1001,5.58231 L 6.63939,5.6623 L 7.16825,5.79478 L 7.68157,5.97845
 L 8.17443,6.21155 L 8.64206,6.49184 L 9.07996,6.81661 L 9.48393,7.18274 L 9.85006,7.5867 L 10.1748,8.02461
 L 10.4551,8.49224 L 10.6882,8.98509 L 10.8719,9.49842 L 11.0044,10.0273 L 11.0844,10.5666 L 11.1111,11.1111
 L 11.0844,11.6557 L 11.0044,12.1949 L 10.8719,12.7238 L 10.6882,13.2371 L 10.4551,13.73 L 10.1748,14.1976
 L 9.85006,14.6355 L 9.48393,15.0395 L 9.07996,15.4056 L 8.64206,15.7304 L 8.17443,16.0107 L 7.68157,16.2438
 L 7.16825,16.4274 L 6.63939,16.5599 L 6.1001,16.6399 L 5.55556,16.6667 z
" stroke="none" fill="black" stroke-width="0.35"/>
</svg>
